<svg width="600" height="380" viewBox="0 0 600 380" fill="none" xmlns="http://www.w3.org/2000/svg">
<path d="M207.638 74.9642C295.746 -48.3456 477.569 -16.116 504.81 146.527C660.825 172.55 598.914 356.337 504.81 349.831H78.864C-37.5281 299.412 -14.4148 184.748 78.864 146.527C86.2933 84.7228 139.124 47.3149 207.638 74.9642Z" fill="url(#paint0_linear_0_1)"/>
<path d="M237.853 242.35C241.753 242.35 244.553 242.85 246.253 243.85C248.053 244.75 249.253 246.1 249.853 247.9C250.553 249.7 250.903 252 250.903 254.8C250.903 257.6 250.653 259.85 250.153 261.55C249.653 263.25 249.053 264.55 248.353 265.45C247.653 266.35 246.603 267 245.203 267.4C243.603 268 241.053 268.3 237.553 268.3H175.153C172.853 268.3 170.653 267.7 168.553 266.5C164.153 264 161.953 260.05 161.953 254.65C161.953 252.05 162.553 249.95 163.753 248.35L210.253 184H175.753C173.353 184 171.553 183.95 170.353 183.85C169.253 183.65 167.903 183.2 166.303 182.5C163.403 181.1 161.953 177.35 161.953 171.25C161.953 164.85 163.303 160.95 166.003 159.55C167.503 158.75 168.803 158.3 169.903 158.2C171.103 158 172.903 157.9 175.303 157.9H235.603C237.903 157.9 240.103 158.5 242.203 159.7C244.303 160.9 245.903 162.5 247.003 164.5C248.203 166.5 248.803 168.85 248.803 171.55C248.803 174.25 248.203 176.4 247.003 178L200.503 242.35H237.853ZM316.69 158.05C320.59 158.05 323.44 158.4 325.24 159.1C327.14 159.7 328.49 160.75 329.29 162.25C330.39 164.55 330.94 167.65 330.94 171.55V229.6C330.94 240.1 327.14 249.4 319.54 257.5C311.94 265.5 302.24 269.5 290.44 269.5C283.84 269.5 277.99 268.05 272.89 265.15C268.29 262.65 265.09 260.4 263.29 258.4L262.09 257.2C258.59 253.5 256.84 250.35 256.84 247.75C256.84 245.05 258.59 241.9 262.09 238.3C265.59 234.7 268.69 232.9 271.39 232.9C274.09 232.9 277.09 234.55 280.39 237.85C283.69 241.15 287.24 242.8 291.04 242.8C294.94 242.8 298.14 241.5 300.64 238.9C303.14 236.3 304.39 232.85 304.39 228.55V172.45C304.39 166.45 305.39 162.6 307.39 160.9C309.69 159 312.79 158.05 316.69 158.05ZM410.864 162.1C411.664 160.6 413.014 159.55 414.914 158.95C416.814 158.35 419.214 158.05 422.114 158.05C425.014 158.05 427.314 158.3 429.014 158.8C430.714 159.3 432.014 159.9 432.914 160.6C433.814 161.3 434.514 162.3 435.014 163.6C435.514 165.3 435.764 167.9 435.764 171.4V254.65C435.764 256.95 435.664 258.7 435.464 259.9C435.364 261 434.914 262.3 434.114 263.8C432.714 266.5 428.814 267.85 422.414 267.85C415.414 267.85 411.314 266 410.114 262.3C409.514 260.6 409.214 258 409.214 254.5V224.05H369.464V254.65C369.464 256.95 369.364 258.7 369.164 259.9C369.064 261 368.614 262.3 367.814 263.8C366.414 266.5 362.514 267.85 356.114 267.85C349.114 267.85 345.014 266 343.814 262.3C343.214 260.6 342.914 258 342.914 254.5V171.25C342.914 168.95 342.964 167.25 343.064 166.15C343.264 164.95 343.764 163.6 344.564 162.1C345.964 159.4 349.864 158.05 356.264 158.05C363.264 158.05 367.414 159.9 368.714 163.6C369.214 165.3 369.464 167.9 369.464 171.4V202H409.214V171.25C409.214 168.95 409.264 167.25 409.364 166.15C409.564 164.95 410.064 163.6 410.864 162.1Z" fill="black"/>
<path d="M237.853 242.35C241.753 242.35 244.553 242.85 246.253 243.85C248.053 244.75 249.253 246.1 249.853 247.9C250.553 249.7 250.903 252 250.903 254.8C250.903 257.6 250.653 259.85 250.153 261.55C249.653 263.25 249.053 264.55 248.353 265.45C247.653 266.35 246.603 267 245.203 267.4C243.603 268 241.053 268.3 237.553 268.3H175.153C172.853 268.3 170.653 267.7 168.553 266.5C164.153 264 161.953 260.05 161.953 254.65C161.953 252.05 162.553 249.95 163.753 248.35L210.253 184H175.753C173.353 184 171.553 183.95 170.353 183.85C169.253 183.65 167.903 183.2 166.303 182.5C163.403 181.1 161.953 177.35 161.953 171.25C161.953 164.85 163.303 160.95 166.003 159.55C167.503 158.75 168.803 158.3 169.903 158.2C171.103 158 172.903 157.9 175.303 157.9H235.603C237.903 157.9 240.103 158.5 242.203 159.7C244.303 160.9 245.903 162.5 247.003 164.5C248.203 166.5 248.803 168.85 248.803 171.55C248.803 174.25 248.203 176.4 247.003 178L200.503 242.35H237.853ZM316.69 158.05C320.59 158.05 323.44 158.4 325.24 159.1C327.14 159.7 328.49 160.75 329.29 162.25C330.39 164.55 330.94 167.65 330.94 171.55V229.6C330.94 240.1 327.14 249.4 319.54 257.5C311.94 265.5 302.24 269.5 290.44 269.5C283.84 269.5 277.99 268.05 272.89 265.15C268.29 262.65 265.09 260.4 263.29 258.4L262.09 257.2C258.59 253.5 256.84 250.35 256.84 247.75C256.84 245.05 258.59 241.9 262.09 238.3C265.59 234.7 268.69 232.9 271.39 232.9C274.09 232.9 277.09 234.55 280.39 237.85C283.69 241.15 287.24 242.8 291.04 242.8C294.94 242.8 298.14 241.5 300.64 238.9C303.14 236.3 304.39 232.85 304.39 228.55V172.45C304.39 166.45 305.39 162.6 307.39 160.9C309.69 159 312.79 158.05 316.69 158.05ZM410.864 162.1C411.664 160.6 413.014 159.55 414.914 158.95C416.814 158.35 419.214 158.05 422.114 158.05C425.014 158.05 427.314 158.3 429.014 158.8C430.714 159.3 432.014 159.9 432.914 160.6C433.814 161.3 434.514 162.3 435.014 163.6C435.514 165.3 435.764 167.9 435.764 171.4V254.65C435.764 256.95 435.664 258.7 435.464 259.9C435.364 261 434.914 262.3 434.114 263.8C432.714 266.5 428.814 267.85 422.414 267.85C415.414 267.85 411.314 266 410.114 262.3C409.514 260.6 409.214 258 409.214 254.5V224.05H369.464V254.65C369.464 256.95 369.364 258.7 369.164 259.9C369.064 261 368.614 262.3 367.814 263.8C366.414 266.5 362.514 267.85 356.114 267.85C349.114 267.85 345.014 266 343.814 262.3C343.214 260.6 342.914 258 342.914 254.5V171.25C342.914 168.95 342.964 167.25 343.064 166.15C343.264 164.95 343.764 163.6 344.564 162.1C345.964 159.4 349.864 158.05 356.264 158.05C363.264 158.05 367.414 159.9 368.714 163.6C369.214 165.3 369.464 167.9 369.464 171.4V202H409.214V171.25C409.214 168.95 409.264 167.25 409.364 166.15C409.564 164.95 410.064 163.6 410.864 162.1Z" fill="#4267F8" fill-opacity="0.25"/>
<rect y="360" width="600" height="20" rx="10" fill="black"/>
<rect y="360" width="600" height="20" rx="10" fill="url(#paint1_linear_0_1)" fill-opacity="0.6"/>
<circle cx="584.991" cy="334.991" r="15" transform="rotate(-0.0402746 584.991 334.991)" fill="#48C9E6"/>
<defs>
<linearGradient id="paint0_linear_0_1" x1="600" y1="350" x2="4.57394" y2="-7.61556" gradientUnits="userSpaceOnUse">
<stop stop-color="#48C9E6"/>
<stop offset="1" stop-color="#4267F8"/>
</linearGradient>
<linearGradient id="paint1_linear_0_1" x1="600" y1="370" x2="0" y2="370" gradientUnits="userSpaceOnUse">
<stop stop-color="#48C9E6"/>
<stop offset="1" stop-color="#4267F8"/>
</linearGradient>
</defs>
</svg>
